# xmcd
#
# Track frame offsets:
#	150
#	17038
#	32820
#	49803
#	70920
#	90230
#	107685
#	128063
#	146516
#	159752
#	178637
#	197105
#	216760
#	235875
#	253977
#	272580
#	291228
#	314120
#	329907
#
# Disc length: 4652 seconds
#
# Revision: 0
# Processed by: cddbd v1.5.2PL0 Copyright (c) Steve Scherf et al.
# Submitted via: EasyCDDAExtractor 10.0.3.1
#
DISCID=1f122a13
DTITLE=Zezé Di Camargo e Luciano
DYEAR=1900
DGENRE=Sertanejo
TTITLE0=A ferro e fogo
TTITLE1=Nosso Amor É Ouro
TTITLE2=Irresistível
TTITLE3=Felicidade que Saudade de Você
TTITLE4=Nem mais uma dúvida
TTITLE5=Pra Mudar minha Vida
TTITLE6=Cada volta um recomeço
TTITLE7=Dois corações e uma história
TTITLE8=Muda de vida
TTITLE9=Pare
TTITLE10=Da Boca Pra Fora
TTITLE11=Saudade bandida
TTITLE12=Será que foi saudade
TTITLE13=Pior é te Perder
TTITLE14=Dois Corações e uma História
TTITLE15=Indiferença
TTITLE16=Pra Não Pensar em Você
TTITLE17=Pra que mentir
TTITLE18=Flor de Flamboyant
EXTD=
EXTT0=
EXTT1=
EXTT2=
EXTT3=
EXTT4=
EXTT5=
EXTT6=
EXTT7=
EXTT8=
EXTT9=
EXTT10=
EXTT11=
EXTT12=
EXTT13=
EXTT14=
EXTT15=
EXTT16=
EXTT17=
EXTT18=
PLAYORDER=
